<svg width="10" height="10" viewBox="0 0 10 10" fill="none" xmlns="http://www.w3.org/2000/svg">
<path d="M6.10138 5.00044L9.84024 1.26141C9.94309 1.15849 9.99984 1.02117 10 0.874747C10 0.728243 9.94325 0.590763 9.84024 0.487999L9.5126 0.160438C9.40959 0.057267 9.27228 0.000762939 9.12569 0.000762939C8.97935 0.000762939 8.84203 0.057267 8.73902 0.160438L5.00016 3.89922L1.26114 0.160438C1.15829 0.057267 1.02089 0.000762939 0.87439 0.000762939C0.728049 0.000762939 0.59065 0.057267 0.487805 0.160438L0.16 0.487999C-0.0533333 0.701332 -0.0533333 1.04832 0.16 1.26141L3.89894 5.00044L0.16 8.7393C0.0570732 8.84239 0.000406504 8.97971 0.000406504 9.12613C0.000406504 9.27255 0.0570732 9.40987 0.16 9.51288L0.487724 9.84044C0.590569 9.94353 0.728049 10.0001 0.874309 10.0001C1.02081 10.0001 1.15821 9.94353 1.26106 9.84044L5.00008 6.10158L8.73894 9.84044C8.84195 9.94353 8.97927 10.0001 9.12561 10.0001H9.12577C9.27219 10.0001 9.40951 9.94353 9.51252 9.84044L9.84016 9.51288C9.94301 9.40995 9.99976 9.27255 9.99976 9.12613C9.99976 8.97971 9.94301 8.84239 9.84016 8.73938L6.10138 5.00044Z" fill="#A8B1BC"/>
</svg>
